<?xml version="1.0" encoding="UTF-8"?>
<svg width="32px" height="32px" viewBox="0 0 32 32" version="1.1" xmlns="http://www.w3.org/2000/svg" xmlns:xlink="http://www.w3.org/1999/xlink">
    <!-- Generator: Sketch 42 (36781) - http://www.bohemiancoding.com/sketch -->
    <title>MergeAvatar</title>
    <desc>Created with Sketch.</desc>
    <defs></defs>
    <g id="Page-1" stroke="none" stroke-width="1" fill="none" fill-rule="evenodd">
        <g id="MergeAvatar">
            <rect id="Rectangle" fill="#555555" x="0" y="0" width="32" height="32" rx="6"></rect>
            <path d="M23.9857245,14.0114204 C22.5267666,14.0114204 21.2276945,14.8308351 20.5281941,16.0499643 L20.5281941,16.0099929 C18.4296931,15.9700214 15.9914347,15.2905068 14.2726624,13.971449 C12.773733,12.8122769 11.2748037,10.7537473 10.4953605,9.09493219 C11.3947181,8.37544611 11.9942898,7.25624554 11.9942898,5.9971449 C11.9942898,3.77872948 10.2155603,2 7.9971449,2 C5.77872948,2 4,3.7987152 4,6.01713062 C4,7.47608851 4.8194147,8.7751606 5.99857245,9.45467523 L5.99857245,22.5653105 C4.8194147,23.2648108 4,24.5438972 4,26.0028551 C4,28.2212705 5.77872948,30 7.9971449,30 C10.2155603,30 11.9942898,28.2212705 11.9942898,26.0028551 C11.9942898,24.5438972 11.1748751,23.2448251 9.99571734,22.5653105 L9.99571734,15.350464 C11.3347609,16.7494647 12.8736617,17.888651 14.592434,18.7280514 C16.3112063,19.5674518 18.649536,19.987152 20.5281941,20.0071378 L20.5281941,19.9671663 C21.2476802,21.1862955 22.5267666,22.0057102 23.9857245,22.0057102 C26.2041399,22.0057102 27.9828694,20.2269807 27.9828694,18.0085653 C27.9828694,15.7901499 26.2041399,14.0114204 23.9857245,14.0114204 L23.9857245,14.0114204 Z M10.3954318,26.0028551 C10.3954318,27.3219129 9.29621699,28.401142 7.9971449,28.401142 C6.69807281,28.401142 5.59885796,27.3019272 5.59885796,26.0028551 C5.59885796,24.703783 6.69807281,23.6045682 7.9971449,23.6045682 C9.29621699,23.6045682 10.3954318,24.703783 10.3954318,26.0028551 L10.3954318,26.0028551 Z M7.9971449,8.41541756 C6.67808708,8.41541756 5.59885796,7.31620271 5.59885796,6.01713062 C5.59885796,4.71805853 6.69807281,3.61884368 7.9971449,3.61884368 C9.29621699,3.61884368 10.3954318,4.71805853 10.3954318,6.01713062 C10.3954318,7.31620271 9.29621699,8.41541756 7.9971449,8.41541756 L7.9971449,8.41541756 Z M23.9857245,20.4068522 C22.6666667,20.4068522 21.5874375,19.3076374 21.5874375,18.0085653 C21.5874375,16.7094932 22.6866524,15.6102784 23.9857245,15.6102784 C25.2847966,15.6102784 26.3840114,16.7094932 26.3840114,18.0085653 C26.3840114,19.3076374 25.2847966,20.4068522 23.9857245,20.4068522 L23.9857245,20.4068522 Z" id="Shape" fill="#FFFFFF"></path>
        </g>
    </g>
</svg>