<svg width="12px" height="15px" viewBox="28 10 12 15" version="1.1" xmlns="http://www.w3.org/2000/svg" xmlns:xlink="http://www.w3.org/1999/xlink">
    <!-- Generator: Sketch 42 (36781) - http://www.bohemiancoding.com/sketch -->
    <desc>Created with Sketch.</desc>
    <defs></defs>
    <path d="M38,16.01 C37.27,16.01 36.62,16.42 36.27,17.03 L36.27,17.01 C35.22,16.99 34,16.65 33.14,15.99 C32.39,15.41 31.64,14.38 31.25,13.55 C31.7,13.19 32,12.63 32,12 C32,10.89 31.11,10 30,10 C28.89,10 28,10.9 28,12.01 C28,12.74 28.41,13.39 29,13.73 L29,20.29 C28.41,20.64 28,21.28 28,22.01 C28,23.12 28.89,24.01 30,24.01 C31.11,24.01 32,23.12 32,22.01 C32,21.28 31.59,20.63 31,20.29 L31,16.68 C31.67,17.38 32.44,17.95 33.3,18.37 C34.16,18.79 35.33,19 36.27,19.01 L36.27,18.99 C36.63,19.6 37.27,20.01 38,20.01 C39.11,20.01 40,19.12 40,18.01 C40,16.9 39.11,16.01 38,16.01 L38,16.01 Z M31.2,22.01 C31.2,22.67 30.65,23.21 30,23.21 C29.35,23.21 28.8,22.66 28.8,22.01 C28.8,21.36 29.35,20.81 30,20.81 C30.65,20.81 31.2,21.36 31.2,22.01 L31.2,22.01 Z M30,13.21 C29.34,13.21 28.8,12.66 28.8,12.01 C28.8,11.36 29.35,10.81 30,10.81 C30.65,10.81 31.2,11.36 31.2,12.01 C31.2,12.66 30.65,13.21 30,13.21 L30,13.21 Z M38,19.21 C37.34,19.21 36.8,18.66 36.8,18.01 C36.8,17.36 37.35,16.81 38,16.81 C38.65,16.81 39.2,17.36 39.2,18.01 C39.2,18.66 38.65,19.21 38,19.21 L38,19.21 Z" id="Shape" stroke="none" fill="green" fill-rule="evenodd"></path>
</svg>
